# xmcd
#
# Track frame offsets: 
#        150
#        20850
#        34610
#        48820
#        63987
#        76465
#        93659
#        109056
#        127941
#        147171
#        162904
#        177847
#
# Disc length: 2569 seconds
#
# Revision: 0
# Processed by: cddbd v1.5PL3 Copyright (c) Steve Scherf et al.
# Submitted via: ExactAudioCopy v0.95a4
#
DISCID=990a070c
DTITLE=Various Artist - Women Of Country - Millenium Collection
DYEAR=2003
DGENRE=Country
TTITLE0=Lucinda Williams - Right In Time
TTITLE1=Reba McEntire - The Fear Of Being Alone
TTITLE2=Terri Clark - Better Things To Do
TTITLE3=Alison Krauss and Union Station - So Long So Wrong
TTITLE4=Trisha Yearwood - Wrong Side Of Memphis
TTITLE5=Chely Wright - Shut Up And Drive
TTITLE6=K.D. Lang - Trail Of Broken Hearts
TTITLE7=Nanci Griffith - For A Distance
TTITLE8=Lee Ann Womack (W) Jason Sellers - A Little Past Little Rock
TTITLE9=Kathy Mattea - Walking Away A Winner
TTITLE10=Shelby Lynne - Life Is Bad
TTITLE11=Jessica Andrews - You Go First
EXTD=
EXTT0=
EXTT1=
EXTT2=
EXTT3=
EXTT4=
EXTT5=
EXTT6=
EXTT7=
EXTT8=
EXTT9=
EXTT10=
EXTT11=
PLAYORDER=
